<?xml version="1.0" encoding="utf-8"?>
<!-- Generator: Adobe Illustrator 25.4.1, SVG Export Plug-In . SVG Version: 6.00 Build 0)  -->
<svg version="1.1" id="Layer_1" xmlns="http://www.w3.org/2000/svg" xmlns:xlink="http://www.w3.org/1999/xlink" x="0px" y="0px"
	 viewBox="0 0 24 24" style="enable-background:new 0 0 24 24;" xml:space="preserve">
<style type="text/css">
	.st0{fill:#FFFFFF;}
</style>
<path id="_x23_fafafaff" class="st0" d="M12.8,2.2c0.6-0.3,1.4-0.1,2-0.1c0.8,0,1.4,0,2.2,0c0,1.3,0,2.5,0,3.8c-0.8,0-1.4,0-2.2,0
	c-0.3,0-0.5,0-0.8,0.3c-0.1,0.1-0.3,0.4-0.3,0.6c0,1,0,2,0,2.9c1.3,0,2.5,0,3.8,0c-0.5,1.3-1,2.5-1.5,3.8c-0.8,0-1.5,0-2.3,0
	c0,2.8,0,5.6,0,8.4H9.3c0-2.8,0-5.6,0-8.4c-1,0-2,0-3,0c0-1.3,0-2.5,0-3.8c1,0,2,0,3,0c0-1,0-2,0-2.9c0-0.5,0-0.9,0.1-1.4
	C10,3.9,11.3,2.6,12.8,2.2z"/>
</svg>
