<?xml version="1.0" encoding="utf-8"?>
<!-- Generator: Adobe Illustrator 26.0.2, SVG Export Plug-In . SVG Version: 6.00 Build 0)  -->
<svg version="1.1" id="Layer_1" xmlns="http://www.w3.org/2000/svg" xmlns:xlink="http://www.w3.org/1999/xlink" x="0px" y="0px"
	 viewBox="0 0 100 100" style="enable-background:new 0 0 100 100;" xml:space="preserve">
<style type="text/css">
	.st0{fill:#FFFFFF;}
</style>
<path class="st0" d="M50.1,24.5c-14,0-25.4,11.3-25.4,25.4S36,75.3,50.1,75.3s25.4-11.3,25.4-25.4S64.1,24.5,50.1,24.5z M50.1,66.4
	c-9.1,0-16.5-7.4-16.5-16.5S41,33.4,50.1,33.4s16.5,7.4,16.5,16.5S59.1,66.4,50.1,66.4L50.1,66.4z M82.4,23.5c0,3.3-2.7,5.9-5.9,5.9
	c-3.3,0-5.9-2.7-5.9-5.9s2.7-5.9,5.9-5.9S82.4,20.2,82.4,23.5z M99.2,29.5c-0.4-7.9-2.2-15-8-20.7c-5.8-5.8-12.8-7.6-20.7-8
	c-8.2-0.5-32.7-0.5-40.8,0c-7.9,0.4-14.9,2.2-20.7,8s-7.6,12.8-8,20.7c-0.5,8.2-0.5,32.7,0,40.8c0.4,7.9,2.2,15,8,20.7
	s12.8,7.6,20.7,8c8.2,0.5,32.7,0.5,40.8,0c7.9-0.4,15-2.2,20.7-8c5.8-5.8,7.6-12.8,8-20.7C99.7,62.1,99.7,37.7,99.2,29.5L99.2,29.5z
	 M88.6,79.1c-1.7,4.3-5.1,7.7-9.4,9.4c-6.5,2.6-22,2-29.2,2s-22.7,0.6-29.2-2c-4.3-1.7-7.7-5.1-9.4-9.4c-2.6-6.5-2-22-2-29.2
	s-0.6-22.7,2-29.2c1.7-4.3,5.1-7.7,9.4-9.4c6.5-2.6,22-2,29.2-2s22.7-0.6,29.2,2c4.3,1.7,7.7,5.1,9.4,9.4c2.6,6.5,2,22,2,29.2
	S91.2,72.6,88.6,79.1z"/>
</svg>
