<?xml version="1.0" encoding="utf-8"?>
<!-- Generator: Adobe Illustrator 25.4.1, SVG Export Plug-In . SVG Version: 6.00 Build 0)  -->
<svg version="1.1" id="Layer_1" xmlns="http://www.w3.org/2000/svg" xmlns:xlink="http://www.w3.org/1999/xlink" x="0px" y="0px"
	 viewBox="0 0 22 18" style="enable-background:new 0 0 22 18;" xml:space="preserve">
<style type="text/css">
	.st0{fill:#FFFFFF;}
</style>
<g>
	<path class="st0" d="M13.1,8.8c0,0.5-0.1,1-0.3,1.4c-0.3,0.5-0.9,0.9-1.6,0.9c-0.6,0-1.1-0.1-1.6-0.5C9,10.1,8.8,9.3,9,8.6
		C9.1,8,9.5,7.4,10,7.1C10.5,6.9,11,6.9,11.5,7c0.5,0.1,0.9,0.3,1.2,0.7C12.9,8,13,8.4,13.1,8.8z"/>
	<path class="st0" d="M16.2,7.7c0-0.5,0-1-0.1-1.5c-0.1-0.6-0.2-1.2-0.6-1.7C15.1,4.2,14.5,4,14,3.9c-0.4-0.1-0.8-0.1-1.2-0.1
		c-0.8,0-1.6,0-2.4,0c-0.4,0-0.8,0-1.3,0C8.8,3.9,8.4,3.9,8,4C7.5,4,7.1,4.1,6.7,4.4C6.4,4.7,6.2,5.1,6.1,5.5l0,0C6,6,5.9,6.5,5.9,7
		c0,0.6,0,1.2,0,1.8c0,0.5,0,1.1,0,1.6c0,0.4,0,0.8,0.1,1.2C6,12,6,12.4,6.2,12.8c0.1,0.3,0.3,0.6,0.6,0.8C7,13.8,7.3,13.9,7.6,14
		c0.5,0.1,1,0.1,1.5,0.2c0.3,0,0.6,0,0.8,0c0.5,0,1.1,0,1.6,0c0.3,0,0.7,0,1,0c0.4,0,0.8,0,1.2-0.1c0.4,0,0.7-0.1,1.1-0.3
		c0.5-0.2,0.9-0.6,1.1-1.1c0.2-0.4,0.2-0.9,0.2-1.4c0-0.4,0-0.8,0-1.1C16.2,9.4,16.2,8.5,16.2,7.7z M14.2,9.2c0,0.4-0.1,0.9-0.3,1.3
		c-0.2,0.5-0.6,0.9-1,1.2c-0.3,0.2-0.6,0.4-0.9,0.5c-0.3,0.1-0.6,0.2-0.9,0.2c-0.5,0-0.9-0.1-1.3-0.3c-0.7-0.3-1.3-0.9-1.7-1.6
		c-0.2-0.5-0.3-1-0.3-1.5c0-0.4,0.1-0.8,0.3-1.1c0.2-0.4,0.4-0.7,0.7-1C9,6.4,9.4,6.2,9.8,6c0.3-0.1,0.7-0.2,1-0.2
		c0.5,0,1,0.1,1.5,0.3C13,6.4,13.6,7,13.9,7.7C14.1,8.1,14.2,8.7,14.2,9.2z M14.9,6.2c-0.2,0.2-0.6,0.3-0.8,0.1
		c-0.3-0.1-0.4-0.4-0.4-0.7c0-0.2,0.1-0.4,0.3-0.6c0.2-0.2,0.5-0.2,0.7-0.1c0.3,0.1,0.5,0.3,0.5,0.6C15.1,5.8,15,6,14.9,6.2z"/>
	<path class="st0" d="M19.5,8.5C19.5,8.5,19.5,8.5,19.5,8.5c0-0.4,0-0.8,0-1.2c0-0.7,0-1.4,0-2c0-0.4,0-0.7,0-1.1
		c0-0.6-0.2-1.2-0.5-1.8c-0.2-0.4-0.5-0.8-0.9-1.1c-0.4-0.3-0.9-0.5-1.4-0.7c-0.4-0.1-0.9-0.2-1.4-0.2c-0.4,0-0.9,0-1.3,0H7
		c-0.1,0-0.1,0-0.2,0c-0.5,0-0.9,0.1-1.4,0.2C4.8,0.8,4.3,1,3.9,1.4C3.7,1.5,3.5,1.7,3.4,1.9C3.1,2.2,2.9,2.6,2.7,3.1
		c-0.2,0.5-0.2,1-0.2,1.5v8.9c0,0.1,0,0.2,0,0.3c0.1,0.8,0.3,1.7,0.8,2.4c0.3,0.4,0.7,0.7,1.2,0.9c0.4,0.2,0.7,0.3,1.1,0.3
		c0.5,0,1.1,0.1,1.6,0.1c0.3,0,0.7,0,1,0h5.4c0.2,0,0.4,0,0.6,0c0.6,0,1.3,0,1.9-0.1c0.4,0,0.8-0.2,1.2-0.3c0.5-0.2,0.9-0.6,1.2-1
		c0.2-0.3,0.4-0.7,0.5-1.1c0.1-0.4,0.2-0.8,0.2-1.2c0-0.1,0-0.2,0-0.3l0,0.1V8.5z M17.3,11.2c0,0.4,0,0.9-0.1,1.3
		c-0.1,0.4-0.2,0.8-0.4,1.2c-0.3,0.5-0.7,0.8-1.1,1.1c-0.4,0.2-0.8,0.3-1.2,0.4c-0.6,0.1-1.2,0.1-1.9,0.1c-0.4,0-0.7,0-1.1,0
		c-0.6,0-1.2,0-1.8,0c-0.4,0-0.9,0-1.3-0.1c-0.7-0.1-1.3-0.2-1.9-0.5c-0.5-0.3-1-0.8-1.2-1.4c-0.3-0.6-0.3-1.3-0.4-1.9
		c0-0.3,0-0.6,0-0.9c0-1,0-2,0-3.1c0-0.7,0-1.3,0.2-2C5,5,5.2,4.6,5.4,4.2C5.6,4,5.7,3.8,5.9,3.6c0.4-0.4,0.9-0.6,1.4-0.7
		c0.4-0.1,0.9-0.1,1.3-0.2c0.2,0,0.4,0,0.7,0c0.7,0,1.4,0,2.1,0c0.5,0,0.9,0,1.4,0c0.4,0,0.8,0,1.2,0.1c0.4,0,0.7,0.1,1.1,0.3
		c0.8,0.3,1.4,0.9,1.8,1.7c0.2,0.4,0.2,0.7,0.3,1.1c0.1,0.7,0.1,1.3,0.1,2c0,0.3,0,0.7,0,1C17.3,9.6,17.3,10.4,17.3,11.2z"/>
</g>
</svg>
