<svg xmlns="http://www.w3.org/2000/svg" viewBox="0 0 100 65.99"><defs><style>.cls-1{fill:#feac02;}.cls-1,.cls-8,.cls-9{fill-rule:evenodd;}.cls-2{fill:#5b9b47;}.cls-3{fill:#c70007;}.cls-4,.cls-8{fill:#780004;}.cls-5{fill:#456f30;}.cls-6{fill:#6db946;}.cls-7{fill:#fcd2c1;}.cls-9{fill:#f5081f;}</style></defs><g id="Layer_2" data-name="Layer 2"><g id="Layer_1-2" data-name="Layer 1"><path d="M9.5,36.94l2.63,9.25,2.64-9.25h9.5v19.3a27,27,0,0,0-3.07-.15c-1,0-2.08,0-3.37.15V44.17l-3,9.62c-.95-.09-1.84-.16-2.73-.16s-1.74.07-2.72.16l-3-9.62V56.24c-1.25-.12-2.32-.15-3.37-.15A26.77,26.77,0,0,0,0,56.24V36.94Z"/><path d="M31.75,47.57a7.58,7.58,0,0,1,3.8.92v-.25c0-1.38-1.16-2.6-3.31-2.6a8.92,8.92,0,0,0-4.35,1.13,23.76,23.76,0,0,0-.83-4.72,16.16,16.16,0,0,1,7.17-1.44c4.41,0,7.45,2.33,7.45,5.64v5.3a10.59,10.59,0,0,0,.92,4.26,21,21,0,0,0-6.22.74,9.13,9.13,0,0,1-.65-2.18,4.9,4.9,0,0,1-4.44,2.18c-3.22,0-5.18-1.75-5.18-4.57C26.11,48.73,29,47.57,31.75,47.57Zm2.15,5.27c.7,0,1.53-.31,1.65-2.48v-.1a4.13,4.13,0,0,0-1.29-.21c-1,0-1.71.49-1.71,1.44A1.26,1.26,0,0,0,33.9,52.84Z"/><path d="M49,58c1.05,0,1.66-.25,1.66-.83,0-1.71-7,0-7-5.33,0-3.15,2.58-4.75,6.68-4.75a20.48,20.48,0,0,1,8.36,2.2,6.79,6.79,0,0,0-2.32,4,8.29,8.29,0,0,0-4.08-1.13c-1.25,0-2.2.18-2.2.82,0,2.06,7-.06,7,5.34,0,3.4-2.81,4.74-7,4.74a14.76,14.76,0,0,1-6.87-1.44A22.38,22.38,0,0,0,44,56.82,10.13,10.13,0,0,0,49,58Z"/><path d="M64.08,49.66a7.56,7.56,0,0,1,3.8.92v-.25c0-1.37-1.16-2.6-3.31-2.6a8.94,8.94,0,0,0-4.35,1.13,24.32,24.32,0,0,0-.82-4.71,16,16,0,0,1,7.17-1.44C71,42.71,74,45,74,48.34v5.3a10.55,10.55,0,0,0,.92,4.26,21,21,0,0,0-6.22.74,8.67,8.67,0,0,1-.64-2.18,4.93,4.93,0,0,1-4.45,2.18c-3.21,0-5.17-1.75-5.17-4.57C58.45,50.82,61.36,49.66,64.08,49.66Zm2.15,5.27c.7,0,1.53-.31,1.65-2.48v-.09a3.87,3.87,0,0,0-1.28-.22c-1,0-1.72.49-1.72,1.44A1.26,1.26,0,0,0,66.23,54.93Z"/><path d="M78.76,35.86c.95,0,2-.06,3.22-.15V56.24a9.79,9.79,0,0,0-3.06,0,6.09,6.09,0,0,0-3.07,1.56V35.71C76.93,35.8,77.81,35.86,78.76,35.86Z"/><path d="M89.15,47.57a7.56,7.56,0,0,1,3.8.92v-.25c0-1.38-1.16-2.6-3.31-2.6a8.94,8.94,0,0,0-4.35,1.13,24.58,24.58,0,0,0-.82-4.72,16.13,16.13,0,0,1,7.17-1.44c4.41,0,7.44,2.33,7.44,5.64v5.3a10.59,10.59,0,0,0,.92,4.26,21.08,21.08,0,0,0-6.22.74,8.67,8.67,0,0,1-.64-2.18,4.93,4.93,0,0,1-4.45,2.18c-3.21,0-5.17-1.75-5.17-4.57C83.52,48.73,86.43,47.57,89.15,47.57Zm2.15,5.27c.7,0,1.53-.31,1.65-2.48v-.1a4.12,4.12,0,0,0-1.28-.21c-1,0-1.72.49-1.72,1.44A1.26,1.26,0,0,0,91.3,52.84Z"/><path class="cls-1" d="M57.15,26.17a5.13,5.13,0,0,0,2.63-4.7,4.74,4.74,0,0,1-.21,3.09l.57-.37a3.6,3.6,0,0,0,1-4.21c-1.79-3.11-1-7.59-1-7.59-1.79,1.75-2.11,4.34-1.91,6.87a2.67,2.67,0,0,1,1-.94,3.21,3.21,0,0,0-.86,2.45c.31,2.05.49,3.67-1.3,5.4m-2.39,1.38a14.63,14.63,0,0,0-.18-4.62c-.26,2.54-1.73,3.48-2.56,5.94a1.84,1.84,0,0,1-1.48-.61,1.82,1.82,0,0,1-.39-.67,1.72,1.72,0,0,0,1.76.27,1.47,1.47,0,0,1-1.16-.18,1.49,1.49,0,0,1-.67-1c-1.78,1.73-1.88,3.81-5.49,3.72,3-.53,2.93-5.83,2.32-7.83.28,1.81-2.24,6.84-4.91,7.81a2.35,2.35,0,0,1-2.74-1,2.43,2.43,0,0,0,2.24.45A2.24,2.24,0,0,1,39,28.1c-.07-.57-.09-1-.09-1a5.91,5.91,0,0,0-.68,2.8,2.88,2.88,0,0,1-1.82-2.57v0h0A6,6,0,0,1,38,23.18a12.25,12.25,0,0,0,3.28-7.07,15.53,15.53,0,0,1,.23,7.45c-.45,2.05,1.14.74,2.4-1.66,2.37-4.55,1-5.11-.13-9.15a5.64,5.64,0,0,0,2.37,1.91,8.91,8.91,0,0,1-1.76-2.6h0c-2-3.69,0-8.53,2.35-12.06-1.07,3.34-1.9,8.85.41,11.64a8.68,8.68,0,0,1-.58-6,14.46,14.46,0,0,0,2.65,6C54,18,49.22,22.6,50.62,24.09c1.11,1.2,3.29-3.93,2.68-8.38a7.51,7.51,0,0,1,1.14,4.84,9,9,0,0,0-2.17-7.94,8,8,0,0,1,4.6,7.58,13.59,13.59,0,0,0,.43,3.75,2.82,2.82,0,0,1-.92,2.67A4.13,4.13,0,0,0,56.27,24,3.84,3.84,0,0,1,54.76,27.55Z"/><path class="cls-2" d="M80.12,26.51h0l-1.18.89c-.82-1.46-2.09-1.9-3.88-1.37a6,6,0,0,0-2.17,1.22,6.8,6.8,0,0,0-.38-.71,11.87,11.87,0,0,1,4.65-1.78l.26,0h.26a2.88,2.88,0,0,1,1.63.38,1.6,1.6,0,0,1,.81,1.25.86.86,0,0,1,0,.15"/><path class="cls-2" d="M71.92,30.3a11.16,11.16,0,0,0-1.15-3A6.78,6.78,0,0,0,70,26.12L69.91,26a1.72,1.72,0,0,1,.92.35,2.61,2.61,0,0,1,.38.41l.18.25h0a5.5,5.5,0,0,1,.7,1.47,2,2,0,0,1-.17,1.85"/><path class="cls-3" d="M66.43,37.67c-5.8,4-13.2,3.71-25.53-1.17a24.57,24.57,0,0,0-8.34-1.82,18,18,0,0,0-5.76.7l0,0c2.53-3.41,8.63-3.53,12.23-2.25a12.46,12.46,0,0,0-5.27-1.42,26.63,26.63,0,0,1,8.65.25c.3.06.61.1.91.13,10.63,1.27,15.09-7,21.26-7.42a5.33,5.33,0,0,1,5.1,3.17l0,.06c1.54,2.87,2.45,5.78-3.3,9.79"/><path class="cls-4" d="M68.85,35.69a9.47,9.47,0,0,1-4,3.65,8.26,8.26,0,0,0,6-7.09,4.39,4.39,0,0,0,0-1.2h0a8.62,8.62,0,0,0-1.14-3.16c.06.19,1,3.45.28,4.8a3.55,3.55,0,0,0-.75-2.57c-1,3-3.93,8.07-12.92,8.65,0,0,5.11-1.18,6.75-2.82a13.58,13.58,0,0,1-2.34.76h0a22.56,22.56,0,0,1-12.17.24,35.51,35.51,0,0,0,5.08,1.45c-4.67-.22-8.43-2.17-12.76-3.33-10.93-2.92-13.85,0-14.09.3l0,0A21.89,21.89,0,0,1,39.6,37a19,19,0,0,0-6-2.23A25.23,25.23,0,0,1,40.9,36.5c12.33,4.88,19.73,5.22,25.53,1.17a17.28,17.28,0,0,0,2.42-2m-12.8.85s7-1.41,10.87-5.55C66.92,31,64.5,35.7,56.05,36.54Z"/><path class="cls-2" d="M77.41,24.74l-.26,0,.26,0"/><path class="cls-5" d="M80.11,26.52l-1.18.89c-.82-1.46-2.09-1.9-3.88-1.37a6,6,0,0,0-2.17,1.22,6.8,6.8,0,0,0-.38-.71,11.87,11.87,0,0,1,4.65-1.78,7,7,0,0,0-2.39.88,4.53,4.53,0,0,1,3.35.07,3.06,3.06,0,0,0-1-.5c2.09.18,2.19,1.41,2.19,1.41a4.54,4.54,0,0,0,.85-.11"/><path class="cls-5" d="M71.92,30.3a11.16,11.16,0,0,0-1.15-3A6.78,6.78,0,0,0,70,26.12c1.07.7,2,3,2,3A5.51,5.51,0,0,0,71.39,27a5.5,5.5,0,0,1,.7,1.47,2,2,0,0,1-.17,1.85"/><path class="cls-6" d="M80.11,26.36a2.73,2.73,0,0,0-2.44-1.63,2.88,2.88,0,0,1,1.63.38,1.6,1.6,0,0,1,.81,1.25"/><path class="cls-7" d="M67.12,26.62c-1.39-.22-3.6.12-6.91,2.25a32.18,32.18,0,0,1-5.45,2.85,23.74,23.74,0,0,0,3.09-2.29C55,31.62,49.89,34,46,33.33h0a26.84,26.84,0,0,0,13.54-5.49c3.37-2.54,5.89-2,7.58-1.22"/><path class="cls-8" d="M43.89,40v0a.88.88,0,1,0,1.76.08A.88.88,0,0,0,45,39.2a.88.88,0,0,1,.17,1A.66.66,0,0,0,43.89,40"/><path class="cls-9" d="M49.25,41.8v0a.59.59,0,0,0,1.05-.53.6.6,0,0,0-.64-.31.61.61,0,0,1,.41.5.44.44,0,0,0-.83.32"/><path class="cls-9" d="M54.48,42.93l0,0a.89.89,0,0,0,1.25.12.89.89,0,0,0-.93-1.5.9.9,0,0,1,.78.61.68.68,0,0,0-1.13.74"/><path class="cls-9" d="M59.26,42.59h0a.57.57,0,0,0,.79-.13.57.57,0,0,0-.82-.76.58.58,0,0,1,.58.24.43.43,0,0,0-.57.64"/><path class="cls-8" d="M40.22,38.89v0a.57.57,0,0,0,.91-.67.56.56,0,0,0-.65-.19.6.6,0,0,1,.47.41.43.43,0,0,0-.58-.15.42.42,0,0,0-.16.58"/><path class="cls-3" d="M76.42,62.1c0-2.73,1.77-3.9,4-3.9a11.44,11.44,0,0,1,3,.33,8.41,8.41,0,0,0-.26,2.32,15.21,15.21,0,0,0-2.43-.36,1.44,1.44,0,0,0-1.64,1.59c0,1.08.58,1.63,1.72,1.63h.4V61.9c.41,0,.8.06,1.19.06s.83,0,1.32-.06v4c-.66,0-1.15,0-1.63,0a15.16,15.16,0,0,1-1.53.07C78.24,66,76.42,64.81,76.42,62.1Z"/><path class="cls-3" d="M85.66,57.91c.38,0,.77,0,1.26-.06v8a11.82,11.82,0,0,0-1.26-.06,9,9,0,0,0-1.13.06v-8C85,57.88,85.29,57.91,85.66,57.91Z"/><path class="cls-3" d="M88.85,57.61c.66,0,1.2.31,1.2,1s-.54,1-1.2,1-1.21-.32-1.21-1S88.18,57.61,88.85,57.61Zm-1.21,2.27c.42,0,.77.06,1.14.06s.76,0,1.25-.06v6a11.35,11.35,0,0,0-1.24-.06,9.34,9.34,0,0,0-1.15.06Z"/><path class="cls-3" d="M91.05,59.88V58.3c.42,0,.77.06,1.14.06s.77,0,1.26-.06v1.58h1a9,9,0,0,0,0,1.8h-1v1.43c0,.51.08.73.28.79a1,1,0,0,0,.54,0,9.36,9.36,0,0,0,.21,2,11.08,11.08,0,0,1-1.63.13c-1.19,0-1.8-.85-1.8-2.46V61.68h-.6a9,9,0,0,0,0-1.8Z"/><path class="cls-3" d="M94.83,65.87v-2.1L97.22,62H94.89a12.27,12.27,0,0,0,0-2.1h4.87V62L97.3,63.77H100a12.27,12.27,0,0,0,0,2.1Z"/></g></g></svg>