<?xml version="1.0" encoding="utf-8"?>
<!-- Generator: Adobe Illustrator 26.0.2, SVG Export Plug-In . SVG Version: 6.00 Build 0)  -->
<svg version="1.1" id="Layer_1" xmlns="http://www.w3.org/2000/svg" xmlns:xlink="http://www.w3.org/1999/xlink" x="0px" y="0px"
	 viewBox="0 0 100 66" style="enable-background:new 0 0 100 66;" xml:space="preserve">
<style type="text/css">
	.st0{fill:#FBFBFB;}
	.st1{fill-rule:evenodd;clip-rule:evenodd;fill:#FEAC02;}
	.st2{fill:#5B9B47;}
	.st3{fill:#C70007;}
	.st4{fill:#780004;}
	.st5{fill:#456F30;}
	.st6{fill:#6DB946;}
	.st7{fill:#FCD2C1;}
	.st8{fill-rule:evenodd;clip-rule:evenodd;fill:#780004;}
	.st9{fill-rule:evenodd;clip-rule:evenodd;fill:#F5081F;}
</style>
<g id="Layer_2_00000040558213900147143800000011971466803029844614_">
	<g id="Layer_1-2">
		<path class="st0" d="M9.5,36.9l2.6,9.2l2.6-9.2h9.5v19.3c-1-0.1-2-0.2-3.1-0.2c-1,0-2.1,0-3.4,0.2V44.2l-3,9.6
			c-0.9-0.1-1.8-0.2-2.7-0.2s-1.7,0.1-2.7,0.2l-3-9.6v12.1c-1.2-0.1-2.3-0.2-3.4-0.2c-1,0-2,0-3,0.2V36.9H9.5z"/>
		<path class="st0" d="M31.8,47.6c1.3,0,2.6,0.3,3.8,0.9v-0.2c0-1.4-1.2-2.6-3.3-2.6c-1.5,0-3,0.4-4.4,1.1c-0.1-1.6-0.4-3.2-0.8-4.7
			c2.2-1,4.7-1.5,7.2-1.4c4.4,0,7.5,2.3,7.5,5.6v5.3c0,1.5,0.3,2.9,0.9,4.3c-2.1-0.1-4.2,0.2-6.2,0.7c-0.3-0.7-0.5-1.4-0.7-2.2
			c-1,1.5-2.7,2.3-4.4,2.2c-3.2,0-5.2-1.8-5.2-4.6C26.1,48.7,29,47.6,31.8,47.6z M33.9,52.8c0.7,0,1.5-0.3,1.7-2.5v-0.1
			c-0.4-0.1-0.9-0.2-1.3-0.2c-1,0-1.7,0.5-1.7,1.4c-0.1,0.7,0.5,1.3,1.2,1.3C33.8,52.8,33.8,52.8,33.9,52.8z"/>
		<path class="st0" d="M49,58c1,0,1.7-0.2,1.7-0.8c0-1.7-7,0-7-5.3c0-3.2,2.6-4.8,6.7-4.8c2.9,0.1,5.8,0.9,8.4,2.2
			c-1.2,1-2,2.4-2.3,4c-1.2-0.7-2.6-1.1-4.1-1.1c-1.2,0-2.2,0.2-2.2,0.8c0,2.1,7-0.1,7,5.3c0,3.4-2.8,4.7-7,4.7
			c-2.4,0.1-4.7-0.4-6.9-1.4c0.4-1.6,0.7-3.2,0.8-4.8C45.5,57.6,47.3,58,49,58z"/>
		<path class="st0" d="M64.1,49.7c1.3,0,2.6,0.3,3.8,0.9v-0.2c0-1.4-1.2-2.6-3.3-2.6c-1.5,0-3,0.4-4.3,1.1c-0.1-1.6-0.4-3.2-0.8-4.7
			c2.2-1,4.7-1.5,7.2-1.4c4.4,0,7.4,2.3,7.4,5.6v5.3c0,1.5,0.3,2.9,0.9,4.3c-2.1-0.1-4.2,0.2-6.2,0.7c-0.3-0.7-0.5-1.4-0.6-2.2
			c-1,1.5-2.7,2.3-4.5,2.2c-3.2,0-5.2-1.8-5.2-4.6C58.5,50.8,61.4,49.7,64.1,49.7z M66.2,54.9c0.7,0,1.5-0.3,1.7-2.5v-0.1
			c-0.4-0.1-0.8-0.2-1.3-0.2c-1,0-1.7,0.5-1.7,1.4c-0.1,0.7,0.5,1.3,1.2,1.4C66.1,54.9,66.2,54.9,66.2,54.9z"/>
		<path class="st0" d="M78.8,35.9c0.9,0,2-0.1,3.2-0.2v20.5c-1-0.2-2-0.2-3.1,0c-1.2,0.2-2.2,0.8-3.1,1.6V35.7
			C76.9,35.8,77.8,35.9,78.8,35.9z"/>
		<path class="st0" d="M89.2,47.6c1.3,0,2.6,0.3,3.8,0.9v-0.2c0-1.4-1.2-2.6-3.3-2.6c-1.5,0-3,0.4-4.3,1.1c-0.1-1.6-0.4-3.2-0.8-4.7
			c2.2-1,4.7-1.5,7.2-1.4c4.4,0,7.4,2.3,7.4,5.6v5.3c0,1.5,0.3,2.9,0.9,4.3c-2.1-0.1-4.2,0.2-6.2,0.7c-0.3-0.7-0.5-1.4-0.6-2.2
			c-1,1.5-2.7,2.3-4.4,2.2c-3.2,0-5.2-1.8-5.2-4.6C83.5,48.7,86.4,47.6,89.2,47.6z M91.3,52.8c0.7,0,1.5-0.3,1.7-2.5v-0.1
			c-0.4-0.1-0.8-0.2-1.3-0.2c-1,0-1.7,0.5-1.7,1.4c-0.1,0.7,0.5,1.3,1.2,1.3C91.2,52.8,91.2,52.8,91.3,52.8z"/>
		<path class="st1" d="M57.2,26.2c1.7-0.9,2.7-2.8,2.6-4.7c0.3,1,0.2,2.1-0.2,3.1l0.6-0.4c1.2-1,1.6-2.7,1-4.2c-1.8-3.1-1-7.6-1-7.6
			c-1.8,1.8-2.1,4.3-1.9,6.9c0.2-0.4,0.6-0.7,1-0.9c-0.6,0.7-0.9,1.5-0.9,2.5C58.7,22.8,58.9,24.4,57.2,26.2 M54.7,27.5
			c0.2-1.5,0.1-3.1-0.2-4.6c-0.3,2.5-1.7,3.5-2.6,5.9c-0.6,0-1.1-0.2-1.5-0.6c-0.2-0.2-0.3-0.4-0.4-0.7c0.5,0.4,1.2,0.5,1.8,0.3
			c-0.4,0.1-0.8,0-1.2-0.2c-0.4-0.2-0.6-0.6-0.7-1c-1.8,1.7-1.9,3.8-5.5,3.7c3-0.5,2.9-5.8,2.3-7.8c0.3,1.8-2.2,6.8-4.9,7.8
			c-1,0.3-2.2-0.1-2.7-1c0.6,0.5,1.5,0.7,2.2,0.5c-1.1,0.1-2.2-0.6-2.4-1.7c-0.1-0.6-0.1-1-0.1-1c-0.5,0.9-0.7,1.8-0.7,2.8
			c-1.1-0.4-1.8-1.4-1.8-2.6l0,0l0,0c0-1.5,0.5-3,1.6-4.1c1.8-1.9,3-4.4,3.3-7.1c0.7,2.4,0.8,5,0.2,7.5c-0.5,2,1.1,0.7,2.4-1.7
			c2.4-4.5,1-5.1-0.1-9.1c0.6,0.8,1.4,1.5,2.4,1.9c-0.7-0.8-1.3-1.6-1.8-2.6l0,0c-2-3.7,0-8.5,2.3-12.1c-1.1,3.3-1.9,8.9,0.4,11.6
			c-0.9-1.9-1.1-4-0.6-6c0.4,2.2,1.3,4.2,2.7,6c4.8,6.4,0,11,1.4,12.4c1.1,1.2,3.3-3.9,2.7-8.4c0.9,1.4,1.3,3.1,1.1,4.8
			c0.6-2.8-0.2-5.8-2.2-7.9c2.9,1.4,4.7,4.4,4.6,7.6c0,1.3,0.1,2.5,0.4,3.8c0.2,1-0.2,2-0.9,2.7c0.2-0.9,0.2-1.8-0.1-2.6
			C56.4,25.4,55.9,26.7,54.7,27.5L54.7,27.5z"/>
		<path class="st2" d="M80.1,26.5L80.1,26.5l-1.2,0.9c-0.8-1.5-2.1-1.9-3.9-1.4c-0.8,0.3-1.5,0.7-2.2,1.2c-0.1-0.2-0.2-0.5-0.4-0.7
			c1.4-0.9,3-1.5,4.7-1.8h0.3h0.3c0.6,0,1.1,0.1,1.6,0.4c0.5,0.3,0.8,0.7,0.8,1.2C80.1,26.4,80.1,26.5,80.1,26.5"/>
		<path class="st2" d="M71.9,30.3c-0.2-1.1-0.6-2.1-1.2-3c-0.2-0.4-0.5-0.8-0.8-1.2L69.9,26c0.3,0,0.7,0.1,0.9,0.4
			c0.1,0.1,0.3,0.3,0.4,0.4l0.2,0.2l0,0c0.3,0.5,0.5,0.9,0.7,1.5C72.3,29.1,72.3,29.8,71.9,30.3"/>
		<path class="st3" d="M66.4,37.7c-5.8,4-13.2,3.7-25.5-1.2c-2.7-1.1-5.5-1.7-8.3-1.8c-1.9-0.1-3.9,0.2-5.8,0.7l0,0
			c2.5-3.4,8.6-3.5,12.2-2.2c-1.6-0.9-3.4-1.3-5.3-1.4c2.9-0.4,5.8-0.3,8.6,0.2c0.3,0.1,0.6,0.1,0.9,0.1c10.6,1.3,15.1-7,21.3-7.4
			c2.2-0.1,4.2,1.2,5.1,3.2v0.1C71.2,30.8,72.1,33.7,66.4,37.7"/>
		<path class="st4" d="M68.8,35.7c-0.9,1.6-2.3,2.8-4,3.7c3.3-0.9,5.6-3.7,6-7.1c0.1-0.4,0.1-0.8,0-1.2l0,0
			c-0.2-1.1-0.6-2.2-1.1-3.2c0.1,0.2,1,3.5,0.3,4.8c0.1-0.9-0.2-1.8-0.8-2.6c-1,3-3.9,8.1-12.9,8.6c0,0,5.1-1.2,6.8-2.8
			c-0.8,0.3-1.5,0.6-2.3,0.8l0,0c-4,1.2-8.2,1.3-12.2,0.2c1.7,0.6,3.4,1.1,5.1,1.5c-4.7-0.2-8.4-2.2-12.8-3.3
			c-10.9-2.9-13.9,0-14.1,0.3l0,0c4.3-0.8,8.8-0.2,12.8,1.6c-1.9-1.1-3.9-1.8-6-2.2c2.5,0.2,5,0.8,7.3,1.7
			c12.3,4.9,19.7,5.2,25.5,1.2C67.3,37.1,68.1,36.4,68.8,35.7 M56,36.5c0,0,7-1.4,10.9-5.5C66.9,31,64.5,35.7,56,36.5L56,36.5z"/>
		<path class="st2" d="M77.4,24.7h-0.3H77.4"/>
		<path class="st5" d="M80.1,26.5l-1.2,0.9c-0.8-1.5-2.1-1.9-3.9-1.4c-0.8,0.3-1.5,0.7-2.2,1.2c-0.1-0.2-0.2-0.5-0.4-0.7
			c1.4-0.9,3-1.5,4.7-1.8c-0.8,0.1-1.7,0.4-2.4,0.9c1.1-0.4,2.3-0.4,3.3,0.1c-0.3-0.2-0.6-0.4-1-0.5c2.1,0.2,2.2,1.4,2.2,1.4
			C79.6,26.6,79.9,26.6,80.1,26.5"/>
		<path class="st5" d="M71.9,30.3c-0.2-1.1-0.6-2.1-1.2-3c-0.2-0.4-0.5-0.8-0.8-1.2c1.1,0.7,2,3,2,3c-0.1-0.7-0.3-1.5-0.6-2.1
			c0.3,0.5,0.5,0.9,0.7,1.5C72.3,29.1,72.3,29.8,71.9,30.3"/>
		<path class="st6" d="M80.1,26.4c-0.4-1-1.4-1.6-2.4-1.6c0.6,0,1.1,0.1,1.6,0.4C79.8,25.4,80.1,25.8,80.1,26.4"/>
		<path class="st7" d="M67.1,26.6c-1.4-0.2-3.6,0.1-6.9,2.2c-1.7,1.1-3.5,2.1-5.5,2.9c1.1-0.7,2.1-1.4,3.1-2.3
			c-2.9,2.2-8,4.6-11.9,3.9l0,0c4.9-0.5,9.6-2.4,13.5-5.5C62.9,25.3,65.4,25.8,67.1,26.6"/>
		<path class="st8" d="M43.9,40L43.9,40c0,0.5,0.4,0.9,0.8,0.9c0.5,0,0.9-0.4,0.9-0.8l0,0c0-0.4-0.3-0.8-0.6-0.9
			c0.3,0.3,0.3,0.7,0.2,1c0-0.4-0.3-0.6-0.7-0.6C44.2,39.6,44,39.7,43.9,40"/>
		<path class="st9" d="M49.2,41.8L49.2,41.8c0.2,0.3,0.5,0.4,0.8,0.2c0.2-0.2,0.3-0.5,0.2-0.7c-0.1-0.2-0.4-0.4-0.6-0.3
			c0.2,0.1,0.4,0.3,0.4,0.5c-0.1-0.2-0.3-0.3-0.6-0.3S49.2,41.6,49.2,41.8"/>
		<path class="st9" d="M54.5,42.9L54.5,42.9c0.3,0.4,0.9,0.4,1.2,0.1c0.4-0.3,0.4-0.9,0.1-1.3c-0.3-0.3-0.7-0.4-1.1-0.2
			c0.4,0,0.7,0.3,0.8,0.6c-0.2-0.3-0.7-0.3-1-0.1C54.4,42.3,54.3,42.6,54.5,42.9"/>
		<path class="st9" d="M59.3,42.6L59.3,42.6c0.3,0.2,0.6,0.1,0.8-0.1c0.2-0.3,0.1-0.6-0.2-0.8c-0.2-0.1-0.4-0.1-0.6,0
			c0.2,0,0.5,0.1,0.6,0.2c-0.2-0.1-0.5-0.1-0.6,0.1C59.1,42.2,59.1,42.4,59.3,42.6"/>
		<path class="st8" d="M40.2,38.9L40.2,38.9c0.2,0.2,0.6,0.2,0.8,0c0.2-0.2,0.2-0.5,0.1-0.7C41,38,40.7,37.9,40.5,38
			c0.2,0,0.4,0.2,0.5,0.4c-0.1-0.2-0.4-0.3-0.6-0.2C40.2,38.4,40.1,38.7,40.2,38.9C40.2,38.9,40.2,38.9,40.2,38.9"/>
		<path class="st3" d="M76.4,62.1c0-2.7,1.8-3.9,4-3.9c1,0,2,0.1,3,0.3c-0.2,0.8-0.3,1.5-0.3,2.3c-0.8-0.2-1.6-0.3-2.4-0.4
			c-0.8-0.1-1.5,0.4-1.6,1.2c0,0.1,0,0.3,0,0.4c0,1.1,0.6,1.6,1.7,1.6h0.4v-1.8c0.4,0,0.8,0.1,1.2,0.1s0.8,0,1.3-0.1v4
			c-0.7,0-1.2,0-1.6,0c-0.5,0-1,0.1-1.5,0.1C78.2,66,76.4,64.8,76.4,62.1z"/>
		<path class="st3" d="M85.7,57.9c0.4,0,0.8,0,1.3-0.1v8c-0.4,0-0.8-0.1-1.3-0.1c-0.4,0-0.8,0-1.1,0.1v-8
			C85,57.9,85.3,57.9,85.7,57.9z"/>
		<path class="st3" d="M88.8,57.6c0.7,0,1.2,0.3,1.2,1s-0.5,1-1.2,1s-1.2-0.3-1.2-1S88.2,57.6,88.8,57.6z M87.6,59.9
			c0.4,0,0.8,0.1,1.1,0.1s0.8,0,1.2-0.1v6c-0.4,0-0.8-0.1-1.2-0.1c-0.4,0-0.8,0-1.2,0.1V59.9z"/>
		<path class="st3" d="M91.1,59.9v-1.6c0.4,0,0.8,0.1,1.1,0.1s0.8,0,1.3-0.1v1.6h1c-0.1,0.6-0.1,1.2,0,1.8h-1v1.4
			c0,0.5,0.1,0.7,0.3,0.8c0.2,0,0.4,0,0.5,0c0,0.7,0.1,1.3,0.2,2C93.9,66,93.4,66,92.9,66c-1.2,0-1.8-0.8-1.8-2.5v-1.9h-0.6
			c0.1-0.6,0.1-1.2,0-1.8H91.1z"/>
		<path class="st3" d="M94.8,65.9v-2.1l2.4-1.8h-2.3c0.1-0.7,0.1-1.4,0-2.1h4.9V62l-2.5,1.8h2.7c-0.1,0.7-0.1,1.4,0,2.1H94.8z"/>
	</g>
</g>
</svg>
