<?xml version="1.0" encoding="utf-8"?>
<!-- Generator: Adobe Illustrator 26.0.3, SVG Export Plug-In . SVG Version: 6.00 Build 0)  -->
<svg version="1.1" id="Layer_1" xmlns="http://www.w3.org/2000/svg" xmlns:xlink="http://www.w3.org/1999/xlink" x="0px" y="0px"
	 viewBox="0 0 60 60" style="enable-background:new 0 0 60 60;" xml:space="preserve">
<g id="_x23_000000ff">
	<path d="M13.4,8.3c0.7-0.5,1.6-0.8,2.5-0.8c17.1,0,22.3,0,39.4,0c0.8,0,1.6,0,2.3,0.3c1.3,0.5,2.3,1.8,2.4,3.2v0.5
		c-0.1,0.9-0.5,1.9-1.2,2.5c-0.7,0.7-1.7,1.1-2.7,1c-17.4,0-22.8,0-40.3,0c-1.1,0-2.1-0.4-2.8-1.2c-0.6-0.6-1-1.5-1-2.3V11
		C12.1,10,12.6,9,13.4,8.3z M1.5,27c0.7-0.5,1.5-0.8,2.4-0.8c17.1,0,34.3,0,51.4,0c0.8,0,1.6,0,2.3,0.3c1.3,0.5,2.3,1.8,2.4,3.2v0.5
		c-0.1,1-0.5,1.9-1.2,2.6c-0.7,0.7-1.7,1-2.6,1c-17.4,0-34.8,0-52.3,0c-1,0-2-0.4-2.8-1.1c-0.6-0.6-1-1.5-1.1-2.4v-0.5
		C0.1,28.7,0.6,27.7,1.5,27z M30.3,45.3c1-0.4,2.1-0.3,3.1-0.3c16.6,0,5.3,0,21.9,0c0.8,0,1.6,0,2.3,0.3c1.3,0.5,2.3,1.8,2.4,3.2V49
		c-0.1,1-0.5,1.9-1.2,2.6c-0.7,0.7-1.7,1-2.6,1c-17.2,0-6.4,0-23.6,0c-0.8,0-1.6,0-2.3-0.3C29,51.7,28.1,50.4,28,49v-0.5
		C28.1,47.1,29,45.8,30.3,45.3z"/>
</g>
</svg>
