<?xml version="1.0" encoding="utf-8"?>
<!-- Generator: Adobe Illustrator 26.0.2, SVG Export Plug-In . SVG Version: 6.00 Build 0)  -->
<svg version="1.1" id="Layer_1" xmlns="http://www.w3.org/2000/svg" xmlns:xlink="http://www.w3.org/1999/xlink" x="0px" y="0px"
	 viewBox="0 0 100 100" style="enable-background:new 0 0 100 100;" xml:space="preserve">
<style type="text/css">
	.st0{fill:#808080;}
</style>
<g>
	<path class="st0" d="M80.9,0c1.4,0.4,2.9,0.6,4.3,1.2c7,2.7,11.4,9.9,10.5,17.4C94.8,26,89,32.1,81.5,33.1
		c-5.2,0.7-9.8-0.7-13.7-4.3c-0.3-0.2-0.5-0.5-0.8-0.7c0,0-0.1,0-0.2-0.1c-9.9,5.7-19.9,11.4-30,17.1c0.9,3.2,0.9,6.4,0,9.7
		c10,5.7,20,11.4,30.1,17.1c3.5-3.6,7.7-5.4,12.7-5.3c4,0.1,7.5,1.5,10.5,4.1c6,5.3,7.5,13.9,3.6,20.7C89.7,98.3,81.5,101.4,74,99
		c-6.7-2.2-13.1-9.4-11.1-19.8c-2.6-1.5-5.2-3-7.8-4.5c-7.2-4.1-14.5-8.3-21.7-12.4c-0.6-0.4-1-0.3-1.6,0.1c-5,4.1-10.6,5.2-16.7,3
		C9,63.1,5.4,58.5,4.5,52c-1-6.9,2.5-13.5,8.7-16.8c6-3.2,13.5-2.4,18.6,2.1c0.4,0.3,0.7,0.7,1.3,0.3c9.9-5.7,19.8-11.3,29.8-17
		c-0.1-1-0.3-2-0.3-3C62.2,8.7,68.1,1.5,76.9,0.2c0.2,0,0.3-0.1,0.5-0.2C78.6,0,79.7,0,80.9,0z"/>
</g>
</svg>
