<?xml version="1.0" encoding="utf-8"?>
<!-- Generator: Adobe Illustrator 26.0.0, SVG Export Plug-In . SVG Version: 6.00 Build 0)  -->
<svg version="1.1" id="Layer_1" xmlns="http://www.w3.org/2000/svg" xmlns:xlink="http://www.w3.org/1999/xlink" x="0px" y="0px"
	 viewBox="0 0 22 18" style="enable-background:new 0 0 22 18;" xml:space="preserve">
<style type="text/css">
	.st0{fill:#FFFFFF;}
</style>
<g>
	<g id="_x23_494949ff">
		<path class="st0" d="M19,6.7c-0.5-0.9-1.1-1.7-1.8-2.5c-1.1-1.2-2.3-2.3-3.7-3.1c-0.7-0.4-1.5-0.8-2.3-0.8h-0.3
			c-1,0.1-2,0.6-2.9,1.2c-1.5,1-2.9,2.4-4,3.8c-0.8,1-1.5,2.2-1.6,3.5v0.4c0.1,0.8,0.4,1.6,0.8,2.3c0.3,0.6,0.7,1.1,1.1,1.7
			c1.1,1.3,2.3,2.5,3.8,3.4c0.9,0.5,1.8,1,2.8,1.1h0.3c0.4,0,0.9-0.1,1.3-0.3c0.9-0.4,1.7-0.9,2.5-1.5c1.3-1,2.4-2.2,3.4-3.5
			c0.7-1,1.3-2,1.4-3.2V9C19.7,8.2,19.4,7.4,19,6.7z M19.1,9.6c-0.2,0.8-0.6,1.6-1,2.3c-1,1.5-2.3,2.9-3.8,4
			c-0.2,0.2-0.5,0.4-0.8,0.5c-0.7,0.4-1.4,0.8-2.2,0.9c-0.1,0-0.2,0-0.3,0c-0.3,0-0.6,0-0.8-0.1c-0.1,0-0.1,0-0.2-0.1c0,0,0,0-0.1,0
			c0,0,0,0-0.1,0c-0.1,0-0.1,0-0.2-0.1c0,0-0.1,0-0.1,0c0,0,0,0-0.1,0c0,0,0,0-0.1,0c0,0,0,0-0.1,0c-1.4-0.6-2.6-1.6-3.6-2.6
			c-1.1-1.1-2-2.3-2.6-3.7C2.9,9.9,2.8,9.3,2.8,8.7c0.1-0.8,0.5-1.5,0.9-2.2c0.6-1,1.3-1.9,2.1-2.7C6.6,3,7.5,2.3,8.5,1.7l0,0l0,0
			c0.3-0.2,0.7-0.4,1.1-0.5c0.1,0,0.1,0,0.2-0.1c0.1,0,0.1,0,0.2-0.1c0,0,0.1,0,0.1,0C10,1,10,1,10,1c0.1,0,0.2,0,0.2-0.1
			c0.2-0.1,0.5-0.1,0.8-0.1c0.1,0,0.1,0,0.2,0c0.6,0.1,1.3,0.3,1.8,0.6c0.7,0.3,1.3,0.8,1.9,1.3c0.8,0.7,1.6,1.4,2.3,2.3
			c0.6,0.8,1.2,1.6,1.6,2.5C19.1,8.1,19.3,8.8,19.1,9.6z"/>
	</g>
	<g id="_x23_9661baff">
		<g>
			<path class="st0" d="M12.5,1.5C12,2.1,11.4,2.6,11,3c-0.6-0.5-1.3-1-1.9-1.3c0.6-0.3,1.2-0.6,1.9-0.6c0.1,0,0.1,0,0.2,0
				C11.6,1.2,12.1,1.3,12.5,1.5z"/>
		</g>
	</g>
	<g id="_x23_40c9ffff">
		<g>
			<path class="st0" d="M13.4,6.1c-0.4,0.4-0.8,0.8-1.2,1.2c-0.4,0.4-0.8,0.8-1.2,1.2c-0.7-0.7-1.3-1.3-2-2C8.1,5.6,7.2,4.7,6.3,3.8
				C7,3.1,7.7,2.6,8.5,2.1c0.8,0.4,1.5,1,2.3,1.7C11.6,4.4,12.4,5.2,13.4,6.1z"/>
		</g>
	</g>
	<g id="_x23_ffa233ff">
		<g>
			<path class="st0" d="M13.2,11.7C13.2,11.7,13.2,11.7,13.2,11.7c-0.1,0.1-0.1,0.1-0.2,0.2c-0.3,0.3-0.6,0.6-1,1
				c-0.4,0.4-0.7,0.7-1.1,1.1c-1.4-1.2-2.6-2.3-3.7-3.4c-1-1-2.3-2.5-3.3-4.1C4.6,5.7,5.1,5,5.8,4.3C6.7,5.2,7.7,6.1,8.5,7
				c0.7,0.7,1.5,1.5,2.2,2.2c0.1,0.1,0.3,0.3,0.4,0.4C11.9,10.3,12.6,11,13.2,11.7z"/>
		</g>
	</g>
	<g id="_x23_ff5a7eff">
		<g>
			<path class="st0" d="M10,17c0.1,0,0.1,0,0.2,0.1C10.1,17.1,10.1,17,10,17z"/>
			<path class="st0" d="M12.9,16.3c-0.6,0.3-1.1,0.5-1.7,0.6c-0.1,0-0.1,0-0.2,0c-0.4,0-0.9-0.1-1.5-0.4C8.4,16,7.3,15.2,6,13.9
				c-1.2-1.3-2.1-2.4-2.6-3.6C3.2,9.7,3.1,9.2,3.1,8.8c0.1-0.5,0.2-1,0.6-1.6c1,1.6,2.2,2.9,3.2,3.9c1.2,1.2,2.4,2.4,4,3.6
				C11.4,15.2,12.1,15.7,12.9,16.3z"/>
		</g>
	</g>
</g>
</svg>
