<?xml version="1.0" encoding="utf-8"?>
<!-- Generator: Adobe Illustrator 26.0.2, SVG Export Plug-In . SVG Version: 6.00 Build 0)  -->
<svg version="1.1" id="Layer_1" xmlns="http://www.w3.org/2000/svg" xmlns:xlink="http://www.w3.org/1999/xlink" x="0px" y="0px"
	 viewBox="0 0 100 100" style="enable-background:new 0 0 100 100;" xml:space="preserve">
<style type="text/css">
	.st0{fill:#FFFFFF;}
</style>
<path class="st0" d="M79.1,20.5C71.4,12.7,61,8.4,50,8.4C27.3,8.4,8.8,26.9,8.8,49.6c0,7.3,1.9,14.4,5.5,20.6L8.4,91.6l21.9-5.7
	c6,3.3,12.8,5,19.7,5h0c22.7,0,41.6-18.5,41.6-41.2C91.6,38.6,86.9,28.3,79.1,20.5z M50,83.9c-6.2,0-12.2-1.7-17.5-4.8l-1.2-0.7
	l-13,3.4l3.5-12.6L21,67.9c-3.4-5.5-5.2-11.8-5.2-18.2c0-18.9,15.4-34.3,34.3-34.3c9.2,0,17.7,3.6,24.2,10
	c6.5,6.5,10.4,15.1,10.4,24.2C84.6,68.5,68.9,83.9,50,83.9z M68.8,58.3c-1-0.5-6.1-3-7-3.3c-0.9-0.4-1.6-0.5-2.3,0.5
	c-0.7,1-2.7,3.3-3.3,4c-0.6,0.7-1.2,0.8-2.2,0.3c-6.1-3-10-5.4-14-12.3c-1.1-1.8,1.1-1.7,3-5.6c0.3-0.7,0.2-1.3-0.1-1.8
	c-0.3-0.5-2.3-5.6-3.2-7.6c-0.8-2-1.7-1.7-2.3-1.8c-0.6,0-1.3,0-2,0c-0.7,0-1.8,0.3-2.7,1.3c-0.9,1-3.6,3.5-3.6,8.6s3.7,10,4.2,10.7
	c0.5,0.7,7.3,11.1,17.6,15.6c6.5,2.8,9.1,3.1,12.4,2.6c2-0.3,6.1-2.5,6.9-4.9c0.9-2.4,0.9-4.5,0.6-4.9C70.5,59,69.8,58.8,68.8,58.3z
	"/>
</svg>
